{
    "asset" : {
        "generator" : "Khronos glTF Blender I/O v1.2.75",
        "version" : "2.0"
    },
    "scene" : 0,
    "scenes" : [
        {
            "name" : "Scene",
            "nodes" : [
                0
            ]
        }
    ],
    "nodes" : [
        {
            "mesh" : 0,
            "name" : "Circle"
        }
    ],
    "meshes" : [
        {
            "name" : "Circle",
            "primitives" : [
                {
                    "attributes" : {
                        "POSITION" : 0,
                        "NORMAL" : 1,
                        "TEXCOORD_0" : 2
                    },
                    "indices" : 3
                }
            ]
        }
    ],
    "accessors" : [
        {
            "bufferView" : 0,
            "componentType" : 5126,
            "count" : 446,
            "max" : [
                0.44516345858573914,
                0.019999999552965164,
                0.4451635181903839
            ],
            "min" : [
                -0.44516342878341675,
                -0.019999999552965164,
                -0.44516342878341675
            ],
            "type" : "VEC3"
        },
        {
            "bufferView" : 1,
            "componentType" : 5126,
            "count" : 446,
            "type" : "VEC3"
        },
        {
            "bufferView" : 2,
            "componentType" : 5126,
            "count" : 446,
            "type" : "VEC2"
        },
        {
            "bufferView" : 3,
            "componentType" : 5123,
            "count" : 2208,
            "type" : "SCALAR"
        }
    ],
    "bufferViews" : [
        {
            "buffer" : 0,
            "byteLength" : 5352,
            "byteOffset" : 0
        },
        {
            "buffer" : 0,
            "byteLength" : 5352,
            "byteOffset" : 5352
        },
        {
            "buffer" : 0,
            "byteLength" : 3568,
            "byteOffset" : 10704
        },
        {
            "buffer" : 0,
            "byteLength" : 4416,
            "byteOffset" : 14272
        }
    ],
    "buffers" : [
        {
            "byteLength" : 18688,
            "uri" : "data:application/octet-stream;base64,"
        }
    ]
}
