/* XPM */
static char *splash[] = {
/* width height num_colors chars_per_pixel */
"   112    49       68            2",
/* colors */
".. c #040204",
".# c #848284",
".a c #444244",
".b c #c4c2c4",
".c c #646264",
".d c #242224",
".e c #e4e2e4",
".f c #a4a2a4",
".g c #747274",
".h c #141214",
".i c #545254",
".j c #d4d2d4",
".k c #949294",
".l c #343234",
".m c #f4f2f4",
".n c #b4b2b4",
".o c #6c6a6c",
".p c #cccacc",
".q c #1c1a1c",
".r c #5c5a5c",
".s c #0c0a0c",
".t c #8c8a8c",
".u c #4c4a4c",
".v c #2c2a2c",
".w c #eceaec",
".x c #acaaac",
".y c #7c7a7c",
".z c #dcdadc",
".A c #9c9a9c",
".B c #3c3a3c",
".C c #fcfafc",
".D c #bcbabc",
".E c #c4c6c4",
".F c #646664",
".G c #141614",
".H c #545654",
".I c #6c6e6c",
".J c #040604",
".K c #848684",
".L c #444644",
".M c #242624",
".N c #e4e6e4",
".O c #a4a6a4",
".P c #747674",
".Q c #d4d6d4",
".R c #949694",
".S c #343634",
".T c #f4f6f4",
".U c #b4b6b4",
".V c #cccecc",
".W c #1c1e1c",
".X c #5c5e5c",
".Y c #0c0e0c",
".Z c #8c8e8c",
".0 c #4c4e4c",
".1 c #2c2e2c",
".2 c #eceeec",
".3 c #acaeac",
".4 c #7c7e7c",
".5 c #dcdedc",
".6 c #9c9e9c",
".7 c #3c3e3c",
".8 c #fcfefc",
".9 c #bcbebc",
"#. c #c4c6cc",
"## c #14161c",
"#a c #54565c",
"#b c #6c6e74",
/* pixels */
".8.8.8.8.8.8.8.8.8.8.8.8.8.8.8.8.8.8.8.8.8.8.8.8.8.8.8.8.8.8.8.8.8.8.8.8.8.8.8.8.8.8.8.8.8.8.8.8.8.8.8.8.8.8.8.8.8.8.8.8.8.8.8.8.8.8.8.8.8.8.8.8.8.8.8.8.8.8.8.8.8.8.8.8.8.8.8.8.8.8.8.8.8.8.8.8.8.8.8.8.8.8.8.8.8.8.8.8.8.8.8.8",
".8.8.8.8.8.8.8.8.8.8.8.8.8.8.8.8.8.8.8.8.8.8.8.8.8.8.8.8.8.8.8.8.8.8.8.8.8.8.8.8.8.8.8.8.8.8.8.8.8.8.8.8.8.8.8.8.8.8.8.8.8.8.8.8.8.8.8.8.8.8.8.8.8.8.8.8.8.8.8.8.8.8.8.8.8.8.8.8.8.8.8.8.8.8.8.8.8.8.8.8.8.8.8.8.8.8.8.8.8.8.8.8",
".8.8.8.8.8.8.8.8.8.8.8.8.8.8.8.8.8.8.8.8.8.8.8.8.8.8.8.8.8.8.8.8.8.8.8.8.8.8.8.8.8.8.8.8.8.8.8.8.8.8.8.8.8.8.8.8.8.8.8.8.8.8.8.8.8.8.8.8.8.8.8.8.8.8.8.8.8.8.8.8.8.8.8.8.8.8.8.8.8.8.8.8.8.8.8.8.8.8.8.8.8.8.8.8.8.8.8.8.8.8.8.8",
".8.8.8.8.8.8.8.8.8.8.8.8.8.8.8.8.8.8.8.8.8.8.8.8.8.8.8.8.8.8.8.8.8.8.8.8.8.8.8.8.8.8.8.8.8.8.8.8.8.8.8.8.8.8.8.8.8.8.8.8.8.8.8.8.8.8.8.8.8.8.8.8.8.8.8.8.8.8.8.8.8.8.8.8.8.8.8.8.8.8.8.8.8.8.8.8.8.8.8.8.8.8.8.8.8.8.8.8.8.8.8.8",
".8.8.8.8.8.8.8.8.8.8.8.8.8.8.8.8.8.8.8.8.8.8.8.8.8.8.8.8.8.8.8.8.8.8.8.8.8.8.8.8.8.8.8.8.8.8.8.8.8.8.8.8.8.8.8.8.8.8.8.8.8.8.8.8.8.8.8.8.8.8.8.8.8.8.8.8.8.8.8.8.8.8.8.8.8.8.8.8.8.8.8.8.8.8.8.8.8.8.8.8.8.8.8.8.8.8.8.8.8.8.8.8",
".8.8.8.8.8.8.8.8.8.8.8.8.8.8.8.8.8.8.8.8.8.8.8.8.8.8.8.8.8.8.8.8.8.8.8.8.8.8.8.8.8.8.8.8.8.8.8.8.8.8.8.8.8.8.8.8.8.8.8.8.8.8.8.8.8.8.8.8.8.8.8.8.8.8.8.8.8.8.8.8.8.8.8.8.8.8.8.8.8.8.8.8.8.8.8.8.8.8.8.8.8.8.8.8.8.8.8.8.8.8.8.8",
".8.8.8.8.8.8.8.8.8.8.8.8.8.8.8.8.8.8.8.8.8.8.8.8.8.8.8.8.8.8.8.8.8.8.8.8.8.8.8.8.8.8.8.8.8.8.8.8.8.8.8.8.8.8.8.8.8.8.8.8.8.8.8.8.8.8.8.8.8.8.8.8.8.8.8.8.8.8.8.8.8.8.8.8.8.8.8.8.8.8.8.8.8.8.8.8.8.8.8.8.8.8.8.8.8.8.8.8.8.8.8.8",
".8.8.8.8.8.8.8.8.8.8.8.8.8.8.8.8.8.8.8.8.8.8.8.8.8.8.8.8.N.p.j.N.8.m.w.8.8.8.8.8.8.8.8.8.8.8.8.8.8.8.8.8.8.8.8.8.m.D.j.N.N.w.w.N.p.w.8.8.8.8.8.8.8.8.8.8.8.8.8.8.8.8.8.8.8.8.8.8.8.8.8.8.8.8.8.8.8.8.8.8.8.8.8.8.8.8.8.8.8.8.8.8",
".8.8.8.8.8.8.8.8.8.8.8.8.8.8.8.8.8.8.8.8.8.8.8.8.8.8.8.8.o.v.M.0.t.c.I.C.8.8.8.8.8.8.8.8.8.8.8.8.8.8.8.8.8.8.8.8.j.d.B.0.i.i.i.0.q.R.8.8.8.8.8.8.8.8.8.8.8.8.8.8.8.8.8.C.e.C.8.8.8.8.8.8.8.8.8.8.8.8.8.8.8.8.8.8.8.8.8.8.8.8.8.8",
".8.8.8.8.8.8.8.8.8.8.8.8.8.8.8.8.8.8.8.8.8.8.8.8.8.8.8.8.n.k.l.......7.m.8.8.8.8.8.8.8.8.8.8.8.8.8.8.8.8.8.8.8.8.2.x.3.X.........h.U.8.8.8.8.8.8.8.8.8.8.8.8.8.8.8.8.e.r.h.o.8.8.8.8.8.8.8.8.8.8.8.8.8.8.8.8.8.8.8.8.8.8.8.8.8.8",
".8.8.8.8.8.8.8.8.8.8.8.8.8.8.8.8.8.8.8.8.8.8.8.8.8.8.8.8.8.8.R.......H.8.8.8.8.8.8.8.8.8.8.8.8.8.8.8.8.8.8.8.8.8.8.8.8.5.d.......H.8.8.8.8.8.8.8.8.8.8.8.8.8.8.8.e.f.S.....1.8.8.8.8.8.8.8.8.8.8.8.8.8.8.8.8.8.8.8.8.8.8.8.8.8.8",
".8.8.8.8.8.8.8.8.8.8.8.8.8.8.8.8.8.8.8.8.8.8.8.8.8.8.8.8.8.8.6.......g.8.8.8.8.8.8.8.8.8.8.8.8.8.8.8.8.8.8.8.8.8.8.8.8.2.a.......4.8.8.8.8.8.8.8.8.8.8.8.8.8.9.r.M.....L.k.z.8.8.8.8.8.8.8.8.8.8.8.8.8.8.8.8.8.8.8.8.8.8.8.8.8.8",
".8.8.8.8.8.8.8.8.8.8.8.8.8.8.8.8.8.8.8.8.8.8.8.8.8.8.8.8.8.8.R.....s.U.8.8.8.8.8.8.8.8.8.8.8.8.8.8.8.8.8.8.8.8.8.8.8.8.C.0.....J.O.8.8.8.8.8.8.8.8.8.8.8.8.j.h...s.F.9.m.8.8.8.8.8.8.8.8.8.8.8.8.8.8.8.8.8.8.8.8.8.8.8.8.8.8.8.8",
".8.8.8.8.8.8.8.8.8.8.8.8.8.8.8.8.8.8.8.8.8.8.8.8.8.8.8.8.8.8.b.h...h.E.8.8.8.8.8.8.8.8.8.8.8.8.8.8.8.8.8.8.8.8.8.8.8.8.e.S.....h.E.8.8.8.8.8.8.8.8.8.8.8.8.T.n.U.e.8.8.8.8.8.8.8.8.8.8.8.8.8.8.8.8.8.8.8.8.8.8.8.8.8.8.8.8.8.8.8",
".8.8.8.8.8.8.8.8.8.8.8.8.8.8.8.8.8.8.8.8.8.8.8.8.8.8.8.8.8.8.O.s...M.m.8.8.8.8.8.8.8.8.8.w.p.p.b.E.b.b.Q.z.2.8.8.8.8.8.j.d.....G.5.8.8.8.e.9.9.p.p.p.p.E.E.p.V.j.p.V.p.m.8.8.8.8.8.8.8.8.8.8.8.8.8.8.8.8.8.8.8.8.8.8.8.8.8.8.8.8",
".8.8.8.8.8.8.8.8.8.8.8.8.8.8.8.8.8.8.8.8.8.8.8.8.8.8.8.8.8.8.P.....L.8.8.8.8.8.8.8.8.p.P.l.H.K.R.A.Z.i.W.M.L.k.5.8.8.8.E.J.....d.w.8.8.8.t.h.q.J.Y.h.Y.....Y.G.h.Y.G.l.z.8.8.8.8.8.8.8.8.8.8.8.8.8.8.8.8.8.8.8.8.8.8.8.8.8.8.8.8",
".8.8.8.8.8.8.8.8.8.8.8.8.8.8.8.8.8.8.8.8.8.8.8.8.8.8.8.8.8.C.c.....o.8.8.8.8.8.8.z.X.q...u.Q.C.8.8.8.e.y.......d.n.8.8.f.......1.m.8.8.8.5.9.p.4.J.....I.g.s.......s.U.8.8.8.8.8.8.8.8.8.8.8.8.8.8.8.8.8.8.8.8.8.8.8.8.8.8.8.8.8",
".8.8.8.8.8.8.8.8.8.8.8.8.8.8.8.8.8.8.8.8.8.8.8.8.8.8.8.8.8.m.L.....Z.8.8.8.8.8.e.S.....L.e.8.8.8.8.8.8.C.O.v.....q.e.8.4.......0.8.8.8.8.8.8.8.j.Y...P.C.8.r.......H.8.8.8.8.8.8.8.8.8.8.8.8.8.8.8.8.8.8.8.8.8.8.8.8.8.8.8.8.8.8",
".8.8.8.8.8.8.8.8.8.8.8.8.8.8.8.8.8.8.8.8.8.8.8.8.8.8.8.8.8.e.l.....x.8.8.8.8.T.4.....d.e.8.8.8.8.8.8.8.8.8.x.......0.T.g.......I.8.8.8.8.8.8.e.a.s.k.8.8.8.n.......L.T.8.8.8.8.8.8.8.8.8.8.8.8.8.8.8.8.8.8.8.8.8.8.8.8.8.8.8.8.8",
".8.8.8.8.8.8.8.8.8.8.8.8.8.8.8.8.8.8.8.8.8.8.8.8.8.8.8.8.8.V.G.....9.8.8.8.C.o.....s.O.8.8.8.8.8.8.8.8.8.8.N.S.......k.i.......#.8.8.8.8.8.n.d.Y.A.8.8.8.8.9.......a.T.8.8.8.8.8.8.8.8.8.8.8.8.8.8.8.8.8.8.8.8.8.8.8.8.8.8.8.8.8",
".8.8.8.8.8.8.8.8.8.8.8.8.8.8.8.8.8.8.8.8.8.8.8.8.8.8.8.8.8.n.J...s.E.8.8.8.p.......0.C.8.8.8.8.8.w.C.8.8.8.8.D.h.....l.7.......O.8.8.8.e.4.J.l.U.8.8.8.8.8.t.......4.8.8.8.8.8.8.8.8.8.8.8.8.8.8.8.8.8.8.8.8.8.8.8.8.8.8.8.8.8.8",
".8.8.8.8.8.8.8.8.8.8.8.8.8.8.8.8.8.8.8.8.8.8.8.8.8.8.8.8.C.o.....d.5.8.8.8.Z.......f.8.8.8.8.5.#.1.X.e.8.8.8.5.M.....7.7.....s.b.8.8.x.v...P.w.8.8.8.8.8.N.1.......a.w.8.8.8.8.8.8.8.8.8.8.8.8.8.8.8.8.8.8.8.8.8.8.8.8.8.8.8.8.8",
".8.8.8.8.8.8.8.8.8.8.8.8.8.8.8.8.8.8.8.8.8.8.8.8.8.8.8.8.T.u.....M.w.8.8.8.r.......R.8.8.8.p.v.......H.m.8.8.e.1.....1.B.....J.U.V.0.s...i.8.8.8.8.8.8.8.x.J.......s.Q.8.8.8.8.8.8.8.8.8.8.8.8.8.8.8.8.8.8.8.8.8.8.8.8.8.8.8.8.8",
".8.8.8.8.8.8.8.8.8.8.8.8.8.8.8.8.8.8.8.8.8.8.8.8.8.8.8.8.T.H.....s.9.8.8.8.P.......r.C.8.8.N.r.J...s.y.C.8.8.w.7.....X.7.......q.Y.......v.5.8.8.8.8.8.8.T.0.......0.T.8.8.8.8.8.8.8.8.8.8.8.8.8.8.8.8.8.8.8.8.8.8.8.8.8.8.8.8.8",
".8.8.8.8.8.8.8.8.8.8.8.8.8.8.8.8.8.8.8.8.8.8.8.8.8.8.8.8.m.B.....q.j.8.8.8.U.J.....X.C.8.8.8.C.O.g.3.8.8.8.8.b.Y...J.U.L.......i.X.........L.w.8.8.8.8.8.8.#.......y.8.8.8.8.8.8.8.8.8.8.8.8.8.8.8.8.8.8.8.8.8.8.8.8.8.8.8.8.8.8",
".8.8.8.8.8.8.8.8.8.8.8.8.8.8.8.8.8.8.8.8.8.8.8.8.8.8.8.8.m.7.....1.2.8.8.8.t.......u.C.8.8.8.8.8.8.8.8.8.8.8.R.....4.w.S.....q.2.8.t.Y.......a.w.8.8.8.8.8.H.....J.x.8.8.8.8.8.8.8.8.8.8.8.8.8.8.8.8.8.8.8.8.8.8.8.8.8.8.8.8.8.8",
".8.8.8.8.8.8.8.8.8.8.8.8.8.8.8.8.8.8.8.8.8.8.8.8.8.8.8.8.5.d.....d.5.8.8.8.5.L.....J.A.8.8.8.8.8.8.8.8.8.8.C.u...M.T.5.W.....G.z.8.8.R.J.......i.e.8.8.8.8.r.....h.E.8.8.8.8.8.8.8.8.8.8.8.8.8.8.8.8.8.8.8.8.8.8.8.8.8.8.8.8.8.8",
".8.8.8.8.8.8.8.8.8.8.8.8.8.8.8.8.8.8.8.8.8.8.8.8.8.8.8.8.9.J.......D.8.8.8.8.a.......Y.f.8.8.8.8.8.8.8.8.8.t...M.b.8.b.......J.x.8.8.8.o.........B.j.8.8.8.H.....s.9.8.8.8.8.8.8.8.8.8.8.8.8.8.8.8.8.8.8.8.8.8.8.8.8.8.8.8.8.8.8",
".8.8.8.8.8.8.8.8.8.8.8.8.8.8.8.8.8.8.8.8.8.8.8.8.8.8.8.8.x.........F.8.8.m.k...W.1.......I.e.8.8.8.8.8.j.X.J.u.Q.8.8.p.J.......u.w.8.8.w.7.........G.k.T.b.h.......r.N.C.8.8.8.8.8.8.8.8.8.8.8.8.8.8.8.8.8.8.8.8.8.8.8.8.8.8.8.8",
".8.8.8.8.8.8.8.8.8.8.8.8.8.8.8.8.8.8.8.8.8.8.8.8.8.8.8.8.U...........y.n.L.....t.e.Z.a.Y...h.o.Z.A.t.I.v.1.k.C.8.8.8.V.s.........v.o.E.8.o.............R.Z...........d.y.C.8.8.8.8.8.8.8.8.8.8.8.8.8.8.8.8.8.8.8.8.8.8.8.8.8.8.8",
".8.8.8.8.8.8.8.8.8.8.8.8.8.8.8.8.8.8.8.8.8.8.8.8.8.8.8.8.T.y.M.S.7.7.B.S.W.Y.d.b.8.8.T.U.t.r.S.B.7.a.F.3.m.8.8.8.8.8.D.M.B.0.H.H.a.W.A.8.4.u.H.i.H.i.0.f.P...W.0.H.H.H.4.m.8.8.8.8.8.8.8.8.8.8.8.8.8.8.8.8.8.8.8.8.8.8.8.8.8.8.8",
".8.8.8.8.8.8.8.8.8.8.8.8.8.8.8.8.8.8.8.8.8.8.8.8.8.8.8.8.8.C.z.N.w.w.N.5.z.E.V.8.8.8.8.8.8.C.2.m.m.m.8.8.8.8.8.8.8.8.2.z.N.m.T.T.m.e.T.8.T.2.T.T.T.T.T.C.U.r.E.m.T.T.8.8.8.8.8.8.8.8.8.8.8.8.8.8.8.8.8.8.8.8.8.8.8.8.8.8.8.8.8.8",
".8.8.8.8.8.8.8.8.8.8.8.8.8.8.8.8.8.8.8.8.8.8.8.8.8.8.8.8.8.8.8.8.8.8.8.8.8.8.8.8.8.8.8.8.8.8.8.8.8.8.8.8.8.8.8.8.8.8.8.8.8.8.8.8.8.8.8.8.8.8.8.8.8.8.8.8.8.8.8.8.8.8.8.8.8.8.8.8.8.8.8.8.8.8.8.8.8.8.8.8.8.8.8.8.8.8.8.8.8.8.8.8",
".8.8.8.8.8.8.8.8.8.8.8.8.8.8.8.8.8.8.8.8.8.8.8.8.8.8.8.8.8.8.8.8.8.8.8.8.8.8.8.8.8.8.8.8.8.8.8.8.8.8.8.8.8.8.8.8.8.8.8.8.8.8.8.8.8.8.8.8.8.8.8.8.8.8.8.8.8.8.8.8.8.8.8.8.8.8.8.8.8.8.8.8.8.8.8.8.8.8.8.8.8.8.8.8.8.8.8.8.8.8.8.8",
".8.8.8.8.8.8.8.8.8.8.8.8.8.8.8.8.8.8.8.8.8.8.8.8.8.8.8.8.8.8.8.8.8.8.8.8.8.8.8.8.8.8.8.8.8.8.8.8.8.8.8.8.8.8.8.8.8.8.8.8.8.8.8.8.8.8.8.8.8.8.8.8.8.8.8.8.8.8.8.8.8.8.8.8.8.8.8.8.8.8.8.8.8.8.8.8.8.8.8.8.8.8.8.8.8.8.8.8.8.8.8.8",
".8.8.8.8.8.8.8.8.8.8.8.8.8.8.8.8.8.8.8.8.8.8.8.8.8.8.8.8.8.8.8.8.8.8.8.8.8.8.8.8.8.8.8.8.8.8.8.8.8.8.8.8.8.8.8.8.8.8.8.8.8.8.8.8.8.8.8.8.8.8.8.8.8.8.8.8.8.8.8.8.8.8.8.8.8.8.8.8.8.8.8.8.8.8.8.8.8.8.8.8.8.8.8.8.8.8.8.8.8.8.8.8",
".8.8.8.8.8.8.8.8.8.8.8.8.8.8.8.8.8.8.8.8.8.8.8.8.8.8.8.8.8.8.8.8.8.8.8.8.8.8.8.8.8.8.8.8.8.8.8.8.8.8.8.8.8.8.8.8.8.8.8.8.8.8.8.8.8.8.8.8.8.8.8.8.8.8.8.8.8.8.8.8.8.8.8.8.8.8.8.8.8.8.8.8.8.8.8.8.8.8.8.8.8.8.8.8.8.8.8.8.8.8.8.8",
".8.8.8.8.8.8.8.8.8.8.8.8.8.8.8.8.8.8.8.8.8.8.8.8.8.8.8.8.8.8.8.8.8.e.8.8.8.8.8.8.8.8.8.e.8.8.8.8.R.m.8.8.8.8.8.8.8.8.8.8.8.8.8.8.8.8.8.8.8.8.8.8.8.8.8.8.8.8.8.8.8.8.8.8.8.8.8.8.8.8.8.8.8.8.8.8.8.8.8.8.8.8.8.8.8.8.8.8.8.8.8.8",
".8.8.8.8.8.8.8.8.8.8.8.8.8.8.8.8.8.8.8.8.8.8.8.8.8.8.8.8.8.8.8.8.V.J.8.8.8.8.8.8.8.8.i.#.8.8.8.8.B.j.8.8.8.8.8.8.8.8.8.8.8.8.8.8.8.8.8.8.8.8.8.8.8.8.8.8.8.8.8.8.8.8.8.8.8.8.8.8.8.8.8.8.8.8.8.8.8.8.8.8.8.8.8.8.8.8.8.8.8.8.8.8",
".8.8.8.8.8.8.8.I.#.E.1.C.a.D.z.M.2.r.R.n.u.8.x.u.C.v.p.y.#.8.8.8.b...8.8.f.q.s.u.w.8.L.4.b.Z.C.8.L.j.8.n##.q.l.k.8.C.B...B.w.8.r.l.s#a.l...i.8.8.A##.h.k.8.T.u.J.q.x.8.8.8.8.p.1.s.o.8.8.f.q.s.u.w.8.r.l.s#a.l...i.8.8.8.8.8.8.8",
".8.8.8.8.8.8.8.f.B.#...n...N.8.d.n.s.L.o.o.8.z...n...K.l.3.8.8.8#....8.w.J.Z.j.1#b.8.u.X.Y.x.8.8...E.8.M.y.V.v.4.8.8.p.C.1.Z.8.L#a.b...t.9...j.w.J.b.b.J.w.p...3.z.e.8.8.8.8.l.c.p.o.C.N.J.Z.j.1#b.8.L#a.b...t.9...j.8.8.8.8.8.8",
".8.8.8.8.8.8.8.e...B.S.L.B.8.8.c.B.S.Y.B.D.8.8.M.7.S.a.J.m.8.8.8.E...8.b...8.8.P.u.8.L.....b.8.8...b.8...E.8.L.#.8.5.1...s.#.8.L.#.8...E.8...E.E.........b.T.o.s.q.D.8.8.8.8...E.8.8.8#....8.8.P.u.8.L.#.8...E.8...E.8.8.8.8.8.8",
".8.8.8.8.8.8.8.8.1.s.x...4.8.8.x...#.S.s.m.8.8.o...3...7.8.p.r.T.b...8.w.J.Z.j.v.o.8.u.i#a.i.8.8..#..8.v.o.Q.v.4.8.t.v.m.1.#.8.u.4.8...E.8...b.N.J.O.V.V.8.C.9.2.H.L.8.p.r.T.l.X.V.g.8.w...k.j.v.o.8.u.4.8...E.8...E.8.8.8.8.8.8",
".8.8.8.8.8.8.8.8.P.7.2...b.8.8.2.J.b#b.L.8.8.8.U.s.T.B.K.8.O.q.w.E...8.8.6.q.J.u.w.8.L.4.p.J.e.8...E.8.n##.G##.t.8.e.1.Y.l.k.8.L.#.8...E.8..#..8.R.W.s.r.C.Q.1...q.3.8.O.q.N#..v.s.g.C.8.6.q...u.w.8.L.#.8...b.8..#..8.8.8.8.8.8",
".8.8.8.8.8.8.8.8.8.8.8.8.8.8.8.8.8.8.8.8.8.8.8.8.8.8.8.8.8.8.8.8.8.8.8.8.8.8.8.8.8.8.8.8.8.8.8.8.8.8.8.8.w.k.s.b.8.8.8.8.8.8.8.8.8.8.8.8.8.8.8.8.8.8.8.8.8.8.8.8.8.8.8.8.8.8.8.8.8.8.8.8.8.8.8.8.8.8.8.8.8.8.8.8.8.8.8.8.8.8.8.8",
".8.8.8.8.8.8.8.8.8.8.8.8.8.8.8.8.8.8.8.8.8.8.8.8.8.8.8.8.8.8.8.8.8.8.8.8.8.8.8.8.8.8.8.8.8.8.8.8.8.8.8.8.C.y.n.8.8.8.8.8.8.8.8.8.8.8.8.8.8.8.8.8.8.8.8.8.8.8.8.8.8.8.8.8.8.8.8.8.8.8.8.8.8.8.8.8.8.8.8.8.8.8.8.8.8.8.8.8.8.8.8.8",
".8.8.8.8.8.8.8.8.8.8.8.8.8.8.8.8.8.8.8.8.8.8.8.8.8.8.8.8.8.8.8.8.8.8.8.8.8.8.8.8.8.8.8.8.8.8.8.8.8.8.8.8.8.8.8.8.8.8.8.8.8.8.8.8.8.8.8.8.8.8.8.8.8.8.8.8.8.8.8.8.8.8.8.8.8.8.8.8.8.8.8.8.8.8.8.8.8.8.8.8.8.8.8.8.8.8.8.8.8.8.8.8",
".8.8.8.8.8.8.8.8.8.8.8.8.8.8.8.8.8.8.8.8.8.8.8.8.8.8.8.8.8.8.8.8.8.8.8.8.8.8.8.8.8.8.8.8.8.8.8.8.8.8.8.8.8.8.8.8.8.8.8.8.8.8.8.8.8.8.8.8.8.8.8.8.8.8.8.8.8.8.8.8.8.8.8.8.8.8.8.8.8.8.8.8.8.8.8.8.8.8.8.8.8.8.8.8.8.8.8.8.8.8.8.8",
".8.8.8.8.8.8.8.8.8.8.8.8.8.8.8.8.8.8.8.8.8.8.8.8.8.8.8.8.8.8.8.8.8.8.8.8.8.8.8.8.8.8.8.8.8.8.8.8.8.8.8.8.8.8.8.8.8.8.8.8.8.8.8.8.8.8.8.8.8.8.8.8.8.8.8.8.8.8.8.8.8.8.8.8.8.8.8.8.8.8.8.8.8.8.8.8.8.8.8.8.8.8.8.8.8.8.8.8.8.8.8.8"
};
